<?xml version='1.0' encoding='UTF-8' standalone='no'?>
<!-- Created with Inkscape (http://www.inkscape.org/) -->
<svg xmlns="http://www.w3.org/2000/svg" height="22.908737mm" version="1.1" width="40.092926mm"  gorn="0" viewBox="0 0 142.06155 81.17269" id="svg2">
    <desc >
        <referenceFile >pcb.svg</referenceFile>
    </desc>
    <defs  id="defs4"/>
    <metadata  id="metadata7">
        <rdf:RDF xmlns:rdf="http://www.w3.org/1999/02/22-rdf-syntax-ns#">
            <cc:Work xmlns:rdf="http://www.w3.org/1999/02/22-rdf-syntax-ns#" xmlns:cc="http://creativecommons.org/ns#" rdf:about="">
                <dc:format xmlns:dc="http://purl.org/dc/elements/1.1/">image/svg+xml</dc:format>
                <dc:type xmlns:rdf="http://www.w3.org/1999/02/22-rdf-syntax-ns#" xmlns:dc="http://purl.org/dc/elements/1.1/" rdf:resource="http://purl.org/dc/dcmitype/StillImage"/>
                <dc:title xmlns:dc="http://purl.org/dc/elements/1.1/"/>
            </cc:Work>
        </rdf:RDF>
    </metadata>
    <g  transform="translate(-209.52821,-737.77205)">
        <g >
            <g >
                <g style="display:inline"  gorn="0.3.0.0.0" id="layer1">
                    <g  gorn="0.3.0.0.0.0" id="silkscreen">
                        <path d="m 221.47402,737.94922 c -3.49765,0 -6.31445,2.8168 -6.31445,6.31445 l 0,68.18945 c 0,3.49766 2.8168,6.31446 6.31445,6.31446 l 113.14063,0 c 3.49766,0 6.31445,-2.8168 6.31445,-6.31446 l 0,-68.18945 c 0,-3.49765 -2.81679,-6.31445 -6.31445,-6.31445 l -113.14063,0 z m 110.86524,3.98633 a 5.1082187,5.1082187 0 0 1 5.10937,5.10742 5.1082187,5.1082187 0 0 1 -5.10937,5.10937 5.1082187,5.1082187 0 0 1 -5.10742,-5.10937 5.1082187,5.1082187 0 0 1 5.10742,-5.10742 z m -108.80664,0.21679 a 5.1082187,5.1082187 0 0 1 5.10742,5.10743 5.1082187,5.1082187 0 0 1 -5.10742,5.10937 5.1082187,5.1082187 0 0 1 -5.10938,-5.10937 5.1082187,5.1082187 0 0 1 5.10938,-5.10743 z m 0.21679,63.16993 a 5.1082187,5.1082187 0 0 1 5.10743,5.10742 5.1082187,5.1082187 0 0 1 -5.10743,5.10937 5.1082187,5.1082187 0 0 1 -5.10937,-5.10937 5.1082187,5.1082187 0 0 1 5.10937,-5.10742 z m 108.33789,0 a 5.1082187,5.1082187 0 0 1 5.10938,5.10742 5.1082187,5.1082187 0 0 1 -5.10938,5.10937 5.1082187,5.1082187 0 0 1 -5.10742,-5.10937 5.1082187,5.1082187 0 0 1 5.10742,-5.10742 z" fill="#000080" stroke-width="0.35433072" stroke="#000000" style="stroke-linecap:butt;stroke-linejoin:round;stroke-miterlimit:0;stroke-dasharray:none;stroke-dashoffset:0;"  stroke-opacity="1" fill-opacity="1" gorn="0.3.0.0.0.0.0" id="rect3421"/>
                    </g>
                    <g  gorn="0.3.0.0.0.1" id="copper0">
                        <g  transform="scale(-1,1)">
                            <g >
                                <g >
                                    <rect height="9" y="756.47888" fill="#d4aa00" stroke-width="0.35433072" width="9" stroke="#d4aa00" style="stroke-linecap:butt;stroke-linejoin:round;stroke-miterlimit:0;stroke-dasharray:none;stroke-dashoffset:0;"  stroke-opacity="1" ry="4.5" x="-241.46136" fill-opacity="1" gorn="0.3.0.0.0.1.0.0.0.0" id="connector4pin"/>
                                </g>
                            </g>
                        </g>
                        <g  transform="scale(-1,1)">
                            <g >
                                <g >
                                    <rect height="9" y="765.47888" fill="#d4aa00" stroke-width="0.35433072" width="9" stroke="#d4aa00" style="stroke-linecap:butt;stroke-linejoin:round;stroke-miterlimit:0;stroke-dasharray:none;stroke-dashoffset:0;"  stroke-opacity="1" ry="4.5" x="-241.46136" fill-opacity="1" gorn="0.3.0.0.0.1.1.0.0.0" id="connector5pin"/>
                                </g>
                            </g>
                        </g>
                        <g  transform="scale(-1,1)">
                            <g >
                                <g >
                                    <rect height="9" y="774.47888" fill="#d4aa00" stroke-width="0.35433072" width="9" stroke="#d4aa00" style="stroke-linecap:butt;stroke-linejoin:round;stroke-miterlimit:0;stroke-dasharray:none;stroke-dashoffset:0;"  stroke-opacity="1" ry="4.5" x="-241.46136" fill-opacity="1" gorn="0.3.0.0.0.1.2.0.0.0" id="connector6pin"/>
                                </g>
                            </g>
                        </g>
                        <g  transform="scale(-1,1)">
                            <g >
                                <g >
                                    <rect height="9" y="783.47888" fill="#d4aa00" stroke-width="0.35433072" width="9" stroke="#d4aa00" style="stroke-linecap:butt;stroke-linejoin:round;stroke-miterlimit:0;stroke-dasharray:none;stroke-dashoffset:0;"  stroke-opacity="1" ry="4.5" x="-241.46136" fill-opacity="1" gorn="0.3.0.0.0.1.3.0.0.0" id="connector7pin"/>
                                </g>
                            </g>
                        </g>
                        <g  transform="scale(-1,1)">
                            <g >
                                <g >
                                    <rect height="9" y="792.47888" fill="#d4aa00" stroke-width="0.35433072" width="9" stroke="#d4aa00" style="stroke-linecap:butt;stroke-linejoin:round;stroke-miterlimit:0;stroke-dasharray:none;stroke-dashoffset:0;"  stroke-opacity="1" ry="4.5" x="-241.46136" fill-opacity="1" gorn="0.3.0.0.0.1.4.0.0.0" id="connector8pin"/>
                                </g>
                            </g>
                        </g>
                        <rect height="9" y="761.16162" fill="#d4aa00" stroke-width="0.35433072" width="9" stroke="#d4aa00" style="stroke-linecap:butt;stroke-linejoin:round;stroke-miterlimit:0;stroke-dasharray:none;stroke-dashoffset:0;"  stroke-opacity="1" ry="4.5" x="319.65662" fill-opacity="1" gorn="0.3.0.0.0.1.5" id="connector2pin"/>
                        <rect height="9" y="770.16162" fill="#d4aa00" stroke-width="0.35433072" width="9" stroke="#d4aa00" style="stroke-linecap:butt;stroke-linejoin:round;stroke-miterlimit:0;stroke-dasharray:none;stroke-dashoffset:0;"  stroke-opacity="1" ry="4.5" x="319.65662" fill-opacity="1" gorn="0.3.0.0.0.1.6" id="connector3pin"/>
                        <rect height="9" y="779.16162" fill="#d4aa00" stroke-width="0.35433072" width="9" stroke="#d4aa00" style="stroke-linecap:butt;stroke-linejoin:round;stroke-miterlimit:0;stroke-dasharray:none;stroke-dashoffset:0;"  stroke-opacity="1" ry="4.5" x="319.65662" fill-opacity="1" gorn="0.3.0.0.0.1.7" id="connector1pin"/>
                        <rect height="9" y="788.16162" fill="#d4aa00" stroke-width="0.35433072" width="9" stroke="#d4aa00" style="stroke-linecap:butt;stroke-linejoin:round;stroke-miterlimit:0;stroke-dasharray:none;stroke-dashoffset:0;"  stroke-opacity="1" ry="4.5" x="319.65662" fill-opacity="1" gorn="0.3.0.0.0.1.8" id="connector0pin"/>
                    </g>
                </g>
            </g>
        </g>
    </g>
</svg>
